<svg width="140" height="24" viewBox="0 0 140 24" fill="none" xmlns="http://www.w3.org/2000/svg">
<path d="M40.2607 8.7925C41.8598 8.7925 43.139 9.37024 44.0984 10.5257C45.0701 11.6689 45.4268 13.0333 45.1685 14.619L37.8253 14.619C37.9975 15.1968 38.3112 15.6639 38.7663 16.0204C39.2337 16.3645 39.7872 16.5366 40.4268 16.5366C41.5092 16.5366 42.2964 16.0941 42.7884 15.2091L44.8364 16.131C44.4059 16.9054 43.797 17.5262 43.0098 17.9933C42.2349 18.4481 41.3493 18.6755 40.353 18.6755C38.9016 18.6755 37.69 18.2022 36.7183 17.2557C35.7466 16.3092 35.2607 15.1353 35.2607 13.734C35.2607 12.3327 35.7404 11.1588 36.6999 10.2123C37.6593 9.26575 38.8462 8.7925 40.2607 8.7925ZM40.2607 10.9314C39.7072 10.9314 39.2091 11.0973 38.7663 11.4292C38.3358 11.7488 38.0344 12.179 37.8622 12.7199L42.6777 12.7199C42.5055 12.179 42.2042 11.7488 41.7737 11.4292C41.3432 11.0973 40.8389 10.9314 40.2607 10.9314Z" fill="white"/>
<path d="M47.9434 17.2557C46.9717 16.3092 46.4858 15.1353 46.4858 13.734C46.4858 12.3327 46.9717 11.1588 47.9434 10.2123C48.9151 9.26575 50.1267 8.7925 51.5781 8.7925C52.599 8.7925 53.5153 9.05678 54.3272 9.58535C55.139 10.1139 55.7478 10.8576 56.1537 11.8164L53.8659 12.6093C53.6568 12.1176 53.3493 11.7426 52.9434 11.4845C52.5375 11.2141 52.0824 11.0789 51.5781 11.0789C50.8647 11.0789 50.2681 11.337 49.7884 11.8533C49.3087 12.3573 49.0688 12.9842 49.0688 13.734C49.0688 14.4961 49.3087 15.1353 49.7884 15.6516C50.2681 16.1556 50.8647 16.4076 51.5781 16.4076C52.0824 16.4076 52.5375 16.2723 52.9434 16.0019C53.3493 15.7315 53.6568 15.3504 53.8659 14.8587L56.1537 15.6516C55.7478 16.6104 55.139 17.3541 54.3272 17.8826C53.5153 18.4112 52.599 18.6755 51.5781 18.6755C50.1267 18.6755 48.9151 18.2022 47.9434 17.2557Z" fill="white"/>
<path d="M58.682 17.2557C57.7103 16.3092 57.2244 15.1353 57.2244 13.734C57.2244 12.3327 57.7103 11.1588 58.682 10.2123C59.6537 9.26575 60.8653 8.7925 62.3167 8.7925C63.7681 8.7925 64.9797 9.26575 65.9514 10.2123C66.9231 11.1588 67.4089 12.3327 67.4089 13.734C67.4089 15.1353 66.9231 16.3092 65.9514 17.2557C64.9797 18.2022 63.7681 18.6755 62.3167 18.6755C60.8653 18.6755 59.6537 18.2022 58.682 17.2557ZM59.8074 13.734C59.8074 14.4961 60.0473 15.1353 60.527 15.6516C61.0067 16.1556 61.6033 16.4076 62.3167 16.4076C63.0301 16.4076 63.6266 16.1556 64.1063 15.6516C64.586 15.1353 64.8259 14.4961 64.8259 13.734C64.8259 12.9719 64.586 12.3388 64.1063 11.8348C63.6266 11.3309 63.0301 11.0789 62.3167 11.0789C61.6033 11.0789 61.0067 11.337 60.527 11.8533C60.0473 12.3573 59.8074 12.9842 59.8074 13.734Z" fill="white"/>
<path d="M71.5255 8.97688L71.5255 11.4476C71.833 10.2922 72.3065 9.52389 72.9462 9.14283C73.5981 8.76177 74.3115 8.69416 75.0864 8.94L75.0864 11.3001C74.0901 10.9559 73.2475 10.9744 72.5587 11.3554C71.8699 11.7242 71.5255 12.3265 71.5255 13.1624L71.5255 18.4911L69.0347 18.4911L69.0347 8.97688L71.5255 8.97688Z" fill="white"/>
<path d="M82.9698 11.6505L82.9698 4.84668L85.4606 4.84668L85.4606 18.4911L82.9698 18.4911L82.9698 15.8175C82.6869 16.6903 82.2379 17.3848 81.6229 17.9011C81.0079 18.4173 80.2884 18.6755 79.4643 18.6755C78.2958 18.6755 77.3179 18.2022 76.5307 17.2557C75.7558 16.3092 75.3683 15.1353 75.3683 13.734C75.3683 12.3327 75.7558 11.1588 76.5307 10.2123C77.3179 9.26575 78.2958 8.7925 79.4643 8.7925C80.2884 8.7925 81.0079 9.05063 81.6229 9.56691C82.2379 10.0832 82.6869 10.7777 82.9698 11.6505ZM80.3683 16.4076C81.1309 16.4076 81.7521 16.1556 82.2318 15.6516C82.7238 15.1476 82.9698 14.5084 82.9698 13.734C82.9698 12.9719 82.7238 12.3388 82.2318 11.8348C81.7521 11.3309 81.1309 11.0789 80.3683 11.0789C79.7041 11.0789 79.1322 11.337 78.6525 11.8533C78.1851 12.3573 77.9514 12.9842 77.9514 13.734C77.9514 14.4961 78.1851 15.1353 78.6525 15.6516C79.1199 16.1556 79.6918 16.4076 80.3683 16.4076Z" fill="white"/>
<path d="M89.9397 8.97688L89.9397 11.4476C90.2472 10.2922 90.7207 9.52389 91.3603 9.14283C92.0122 8.76177 92.7256 8.69416 93.5005 8.94L93.5005 11.3001C92.5042 10.9559 91.6617 10.9744 90.9729 11.3554C90.2841 11.7242 89.9397 12.3265 89.9397 13.1624L89.9397 18.4911L87.4489 18.4911L87.4489 8.97688L89.9397 8.97688Z" fill="white"/>
<path d="M98.7825 8.7925C100.382 8.7925 101.661 9.37023 102.62 10.5257C103.592 11.6689 103.949 13.0333 103.69 14.619L96.3471 14.619C96.5193 15.1968 96.8329 15.6639 97.288 16.0204C97.7554 16.3645 98.3089 16.5366 98.9485 16.5366C100.031 16.5366 100.818 16.0941 101.31 15.2091L103.358 16.131C102.928 16.9054 102.319 17.5262 101.532 17.9933C100.757 18.4481 99.8711 18.6755 98.8747 18.6755C97.4233 18.6755 96.2118 18.2022 95.2401 17.2557C94.2683 16.3092 93.7825 15.1353 93.7825 13.734C93.7825 12.3327 94.2622 11.1588 95.2216 10.2123C96.181 9.26575 97.368 8.7925 98.7825 8.7925ZM98.7825 10.9314C98.229 10.9314 97.7308 11.0973 97.288 11.4292C96.8575 11.7488 96.5562 12.179 96.384 12.7199L101.199 12.7199C101.027 12.179 100.726 11.7488 100.295 11.4292C99.8649 11.0973 99.3606 10.9314 98.7825 10.9314Z" fill="white"/>
<path d="M109.398 8.79249C110.603 8.79249 111.581 9.10595 112.331 9.73285C113.082 10.3598 113.457 11.2755 113.457 12.4802L113.457 18.4911L110.966 18.4911L110.966 16.131C110.437 17.8273 109.342 18.6755 107.682 18.6755C106.907 18.6755 106.243 18.4235 105.689 17.9195C105.136 17.4155 104.859 16.7579 104.859 15.9466C104.859 14.1642 106.083 13.144 108.531 12.8858L110.081 12.7383C110.671 12.7014 110.966 12.4494 110.966 11.9823C110.966 11.6382 110.819 11.3616 110.523 11.1526C110.24 10.9436 109.871 10.8392 109.416 10.8392C108.924 10.8392 108.518 10.9682 108.199 11.2264C107.891 11.4722 107.694 11.8225 107.608 12.2774L105.136 11.7242C105.271 10.876 105.72 10.1754 106.483 9.62222C107.245 9.06907 108.217 8.7925 109.398 8.79249ZM108.568 16.7026C109.219 16.7026 109.779 16.4813 110.247 16.0388C110.726 15.5963 110.966 15.0861 110.966 14.5084L110.966 14.2687C110.819 14.4039 110.536 14.4961 110.117 14.5453L108.512 14.7297C108.156 14.7788 107.873 14.8956 107.664 15.08C107.454 15.2521 107.35 15.4733 107.35 15.7438C107.35 16.0265 107.461 16.2601 107.682 16.4444C107.903 16.6165 108.199 16.7026 108.568 16.7026Z" fill="white"/>
<path d="M126.779 8.79249C127.739 8.79249 128.513 9.16126 129.104 9.8988C129.707 10.6363 130.008 11.5767 130.008 12.7199L130.008 18.4911L127.517 18.4911L127.517 13.1624C127.517 12.5478 127.351 12.0438 127.019 11.6504C126.699 11.2571 126.293 11.0604 125.801 11.0604C125.248 11.0604 124.793 11.2571 124.436 11.6504C124.092 12.0438 123.919 12.5478 123.919 13.1624L123.919 18.4911L121.429 18.4911L121.429 13.1624C121.429 12.5478 121.262 12.0438 120.93 11.6504C120.611 11.2571 120.211 11.0604 119.731 11.0604C119.178 11.0604 118.723 11.2571 118.366 11.6504C118.021 12.0438 117.849 12.5478 117.849 13.1624L117.849 18.4911L115.358 18.4911L115.358 8.97688L117.849 8.97688L117.849 11.2817C118.095 10.5073 118.47 9.8988 118.975 9.45628C119.491 9.01376 120.094 8.79249 120.783 8.79249C121.521 8.79249 122.148 9.0199 122.665 9.47472C123.181 9.92953 123.544 10.5441 123.753 11.3186C123.987 10.5441 124.374 9.92953 124.916 9.47472C125.457 9.0199 126.078 8.79249 126.779 8.79249Z" fill="white"/>
<path d="M131.658 17.016C131.658 16.5489 131.818 16.1556 132.138 15.836C132.458 15.5164 132.852 15.3566 133.319 15.3566C133.762 15.3566 134.143 15.5225 134.463 15.8544C134.795 16.174 134.961 16.5612 134.961 17.016C134.961 17.4463 134.795 17.8273 134.463 18.1592C134.143 18.4911 133.762 18.657 133.319 18.657C132.864 18.657 132.47 18.4972 132.138 18.1776C131.818 17.8458 131.658 17.4585 131.658 17.016Z" fill="white"/>
<ellipse cx="12.7548" cy="11.75" rx="7.75" ry="7.75496" transform="rotate(90 12.7548 11.75)" fill="url(#paint0_linear_52_9138)"/>
<ellipse cx="12.7546" cy="11.7503" rx="2.24486" ry="2.24342" fill="black" fill-opacity="0.6"/>
<ellipse cx="12.7545" cy="11.7503" rx="3.46932" ry="3.46711" fill="black" fill-opacity="0.6"/>
<path d="M34.5922 18.2516L34.7801 18.2499L34.7801 18.062L34.7801 16.5937L34.7801 16.4041L34.5905 16.4041L33.866 16.4041C33.474 16.4041 33.2126 16.258 32.9641 15.9587L32.9645 15.9584L32.9551 15.9486L30.1051 12.9765C31.2758 12.7081 32.1482 12.2093 32.6828 11.4599C33.249 10.6662 33.5317 9.83129 33.5317 8.96909C33.5317 8.68623 33.5086 8.39059 33.4501 8.09345L33.4501 8.09345L33.4495 8.09064C33.2275 7.04611 32.6646 6.2094 31.7929 5.57505L31.7919 5.57435C30.9122 4.94267 29.926 4.62632 28.8279 4.62632L23.3662 4.62632L23.1766 4.62632L23.1766 4.81592L23.1766 6.28421L23.1766 6.47381L23.3662 6.47381L24.6479 6.4738L24.6479 16.4041L23.3662 16.4041L23.1766 16.4041L23.1766 16.5937L23.1766 18.062L23.1766 18.2516L23.3662 18.2516L27.9139 18.2516L28.1035 18.2516L28.1035 18.062L28.1035 16.5937L28.1035 16.4041L27.9139 16.4041L26.5987 16.4041L26.5987 11.9861L31.8427 17.5716C32.2476 18.021 32.7773 18.2507 33.3943 18.2621L33.3943 18.2621L33.3995 18.2621L34.5922 18.2516ZM26.5987 11.3175L26.5987 6.4738L29.0062 6.4738C29.7286 6.4738 30.3281 6.70812 30.838 7.1879C31.3475 7.66732 31.592 8.22623 31.592 8.89567C31.592 9.56512 31.3475 10.124 30.838 10.6034C30.3281 11.0832 29.7286 11.3175 29.0062 11.3175L26.5987 11.3175Z" fill="white" stroke="white" stroke-width="0.37919"/>
<defs>
<linearGradient id="paint0_linear_52_9138" x1="5.00481" y1="19.505" x2="20.5147" y2="4.00496" gradientUnits="userSpaceOnUse">
<stop stop-color="#855AFF"/>
<stop offset="1" stop-color="#DC44E8"/>
</linearGradient>
</defs>
</svg>
